<?xml version="1.0" encoding="UTF-8" standalone="no"?>
<!DOCTYPE svg PUBLIC "-//W3C//DTD SVG 1.1//EN" "http://www.w3.org/Graphics/SVG/1.1/DTD/svg11.dtd">
<svg width="100%" height="100%" viewBox="0 0 24 24" version="1.1" xmlns="http://www.w3.org/2000/svg" xmlns:xlink="http://www.w3.org/1999/xlink" xml:space="preserve" xmlns:serif="http://www.serif.com/" style="fill-rule:evenodd;clip-rule:evenodd;stroke-linejoin:round;stroke-miterlimit:2;">
    <g id="Right" transform="matrix(0.75,0,0,0.75,0,0)">
        <path d="M32,24L28,24C26.903,24 26,23.097 26,22L26,10C26,8.903 26.903,8 28,8L32,8L32,10L28,10L28,22L32,22L32,24Z" style="fill:rgb(0,89,76);fill-rule:nonzero;"/>
    </g>
    <g id="Center" transform="matrix(0.75,0,0,0.75,0,0)">
        <path d="M22,26L10,26C8.903,26 8,25.097 8,24L8,8C8,6.903 8.903,6 10,6L22,6C23.097,6 24,6.903 24,8L24,24C24,25.097 23.097,26 22,26ZM10,8L10,24L22,24L22,8L10,8Z" style="fill:rgb(0,89,76);fill-rule:nonzero;"/>
    </g>
    <g id="Left" transform="matrix(0.75,0,0,0.75,0,0)">
        <path d="M4,24L0,24L0,22L4,22L4,10L0,10L0,8L4,8C5.097,8 6,8.903 6,10L6,22C6,23.097 5.097,24 4,24Z" style="fill:rgb(0,89,76);fill-rule:nonzero;"/>
    </g>
    <g id="_Transparent_Rectangle_" transform="matrix(0.75,0,0,0.75,0,0)">
        <rect x="0" y="0" width="32" height="32" style="fill:none;"/>
    </g>
</svg>
