<?xml version="1.0" encoding="UTF-8" standalone="no"?>
<!DOCTYPE svg PUBLIC "-//W3C//DTD SVG 1.1//EN" "http://www.w3.org/Graphics/SVG/1.1/DTD/svg11.dtd">
<svg width="100%" height="100%" viewBox="0 0 24 24" version="1.1" xmlns="http://www.w3.org/2000/svg" xmlns:xlink="http://www.w3.org/1999/xlink" xml:space="preserve" xmlns:serif="http://www.serif.com/" style="fill-rule:evenodd;clip-rule:evenodd;stroke-linejoin:round;stroke-miterlimit:2;">
    <g id="Grid" transform="matrix(1,0,0,1,0,2)">
        <g transform="matrix(0.99769,0,0,0.968108,14.684778,12.514177)">
            <path d="M7.833,2.309L7.833,5.925C7.833,6.352 7.496,6.699 7.082,6.699L2.571,6.699C2.156,6.699 1.819,6.352 1.819,5.925L1.819,2.309C1.819,1.882 2.156,1.535 2.571,1.535L7.082,1.535C7.496,1.535 7.833,1.882 7.833,2.309Z" style="fill:rgb(0,89,76);"/>
        </g>
        <g transform="matrix(0.99769,0,0,0.968108,7.184778,12.514177)">
            <path d="M7.833,2.309L7.833,5.925C7.833,6.352 7.496,6.699 7.082,6.699L2.571,6.699C2.156,6.699 1.819,6.352 1.819,5.925L1.819,2.309C1.819,1.882 2.156,1.535 2.571,1.535L7.082,1.535C7.496,1.535 7.833,1.882 7.833,2.309Z" style="fill:rgb(0,89,76);"/>
        </g>
        <g transform="matrix(0.99769,0,0,0.968108,-0.315222,12.514177)">
            <path d="M7.833,2.309L7.833,5.925C7.833,6.352 7.496,6.699 7.082,6.699L2.571,6.699C2.156,6.699 1.819,6.352 1.819,5.925L1.819,2.309C1.819,1.882 2.156,1.535 2.571,1.535L7.082,1.535C7.496,1.535 7.833,1.882 7.833,2.309Z" style="fill:rgb(0,89,76);"/>
        </g>
        <g transform="matrix(0.99769,0,0,0.968108,14.684778,6.014177)">
            <path d="M7.833,2.309L7.833,5.925C7.833,6.352 7.496,6.699 7.082,6.699L2.571,6.699C2.156,6.699 1.819,6.352 1.819,5.925L1.819,2.309C1.819,1.882 2.156,1.535 2.571,1.535L7.082,1.535C7.496,1.535 7.833,1.882 7.833,2.309Z" style="fill:rgb(0,89,76);"/>
        </g>
        <g transform="matrix(0.99769,0,0,0.968108,7.184778,6.014177)">
            <path d="M7.833,2.309L7.833,5.925C7.833,6.352 7.496,6.699 7.082,6.699L2.571,6.699C2.156,6.699 1.819,6.352 1.819,5.925L1.819,2.309C1.819,1.882 2.156,1.535 2.571,1.535L7.082,1.535C7.496,1.535 7.833,1.882 7.833,2.309Z" style="fill:rgb(0,89,76);"/>
        </g>
        <g transform="matrix(0.99769,0,0,0.968108,-0.315222,6.014177)">
            <path d="M7.833,2.309L7.833,5.925C7.833,6.352 7.496,6.699 7.082,6.699L2.571,6.699C2.156,6.699 1.819,6.352 1.819,5.925L1.819,2.309C1.819,1.882 2.156,1.535 2.571,1.535L7.082,1.535C7.496,1.535 7.833,1.882 7.833,2.309Z" style="fill:rgb(0,89,76);"/>
        </g>
        <g transform="matrix(0.99769,0,0,0.968108,14.684778,-0.485823)">
            <path d="M7.833,2.309L7.833,5.925C7.833,6.352 7.496,6.699 7.082,6.699L2.571,6.699C2.156,6.699 1.819,6.352 1.819,5.925L1.819,2.309C1.819,1.882 2.156,1.535 2.571,1.535L7.082,1.535C7.496,1.535 7.833,1.882 7.833,2.309Z" style="fill:rgb(0,89,76);"/>
        </g>
        <g transform="matrix(0.99769,0,0,0.968108,7.184778,-0.485823)">
            <path d="M7.833,2.309L7.833,5.925C7.833,6.352 7.496,6.699 7.082,6.699L2.571,6.699C2.156,6.699 1.819,6.352 1.819,5.925L1.819,2.309C1.819,1.882 2.156,1.535 2.571,1.535L7.082,1.535C7.496,1.535 7.833,1.882 7.833,2.309Z" style="fill:rgb(0,89,76);"/>
        </g>
        <g transform="matrix(0.99769,0,0,0.968108,-0.315222,-0.485823)">
            <path d="M7.833,2.309L7.833,5.925C7.833,6.352 7.496,6.699 7.082,6.699L2.571,6.699C2.156,6.699 1.819,6.352 1.819,5.925L1.819,2.309C1.819,1.882 2.156,1.535 2.571,1.535L7.082,1.535C7.496,1.535 7.833,1.882 7.833,2.309Z" style="fill:rgb(0,89,76);"/>
        </g>
    </g>
</svg>
