<?xml version="1.0" encoding="UTF-8" standalone="no"?>
<!DOCTYPE svg PUBLIC "-//W3C//DTD SVG 1.1//EN" "http://www.w3.org/Graphics/SVG/1.1/DTD/svg11.dtd">
<svg width="100%" height="100%" viewBox="0 0 24 24" version="1.1" xmlns="http://www.w3.org/2000/svg" xmlns:xlink="http://www.w3.org/1999/xlink" xml:space="preserve" xmlns:serif="http://www.serif.com/" style="fill-rule:evenodd;clip-rule:evenodd;stroke-linejoin:round;stroke-miterlimit:2;">
    <g id="MD" transform="matrix(0.049778,0,0,0.049778,0,0)">
        <path d="M315.458,0L437.334,121.449L437.334,430.824C437.334,459.128 414.306,482.139 386.034,482.139L121.811,482.139C93.521,482.139 70.496,459.129 70.496,430.824L70.496,407.829L65.484,407.829C54.065,407.829 44.806,398.579 44.806,387.152L44.806,261.748C44.806,250.32 54.066,241.069 65.484,241.069L70.496,241.069L70.496,51.315C70.496,23.041 93.521,0 121.811,0L315.458,0ZM225.802,281.203L225.802,367.485L265.412,367.485C270.159,367.485 275.456,366.7 281.302,365.13C285.579,363.992 289.581,361.707 293.309,358.274C297.036,354.841 299.95,350.583 302.049,345.502C304.148,340.421 305.198,333.27 305.198,324.05C305.198,318.164 304.491,312.592 303.079,307.335C301.666,302.077 299.391,297.467 296.252,293.504C293.113,289.541 289.14,286.5 284.333,284.381C279.527,282.263 273.22,281.203 265.412,281.203L225.802,281.203ZM252.464,300.743L259.114,300.743C266.02,300.743 270.964,302.43 273.946,305.805C276.928,309.179 278.419,315.437 278.419,324.579C278.419,331.485 277.752,336.478 276.418,339.558C275.083,342.638 273.239,344.796 270.885,346.032C268.531,347.268 264.568,347.886 258.996,347.886L252.464,347.886L252.464,300.743ZM386.034,450.713C396.987,450.713 405.891,441.793 405.891,430.823L405.15,133.898L339.288,134.087C319.635,134.087 303.701,118.138 303.701,98.5L303.701,31.267L121.811,31.457C110.858,31.457 101.937,40.377 101.937,51.315L101.937,241.069L348.247,241.069C359.667,241.069 368.926,250.32 368.926,261.748L368.926,387.152C368.926,398.579 359.667,407.829 348.247,407.829L101.937,407.829L101.937,430.824C101.937,441.793 110.857,450.713 121.811,450.713L386.034,450.713ZM111.388,281.203L111.388,367.485L133.223,367.485L133.223,301.685L150.056,367.485L169.772,367.485L186.664,301.685L186.664,367.485L208.44,367.485L208.44,281.203L173.48,281.203L160.002,333.702L146.466,281.203L111.388,281.203Z" style="fill:rgb(55,65,81);"/>
    </g>
</svg>
