<?xml version="1.0" encoding="UTF-8" standalone="no"?>
<!DOCTYPE svg PUBLIC "-//W3C//DTD SVG 1.1//EN" "http://www.w3.org/Graphics/SVG/1.1/DTD/svg11.dtd">
<svg width="100%" height="100%" viewBox="0 0 24 24" version="1.1" xmlns="http://www.w3.org/2000/svg" xmlns:xlink="http://www.w3.org/1999/xlink" xml:space="preserve" xmlns:serif="http://www.serif.com/" style="fill-rule:evenodd;clip-rule:evenodd;stroke-linejoin:round;stroke-miterlimit:2;">
    <g id="PDF" transform="matrix(0.049778,0,0,0.049778,0,0)">
        <path d="M315.458,0L437.334,121.449L437.334,430.824C437.334,459.128 414.306,482.139 386.034,482.139L121.811,482.139C93.521,482.139 70.496,459.129 70.496,430.824L70.496,407.829L65.484,407.829C54.065,407.829 44.806,398.579 44.806,387.152L44.806,261.748C44.806,250.32 54.066,241.069 65.484,241.069L70.496,241.069L70.496,51.315C70.496,23.041 93.521,0 121.811,0L315.458,0ZM84.727,281.203L84.727,367.485L111.506,367.485L111.506,335.467L126.102,335.467C136.853,335.467 144.847,333.015 150.085,328.111C155.323,323.206 157.942,316.398 157.942,307.688C157.942,299.213 155.539,292.68 150.733,288.089C145.926,283.498 138.697,281.203 129.045,281.203L84.727,281.203ZM111.506,317.988L111.506,298.742L119.098,298.742C124.081,298.742 127.475,299.684 129.28,301.567C131.085,303.45 131.987,305.746 131.987,308.453C131.987,311.239 130.948,313.524 128.868,315.31C126.789,317.095 123.179,317.988 118.039,317.988L111.506,317.988ZM172.244,281.203L172.244,367.485L211.854,367.485C216.601,367.485 221.898,366.7 227.744,365.13C232.021,363.992 236.023,361.707 239.751,358.274C243.478,354.841 246.392,350.583 248.491,345.502C250.59,340.421 251.64,333.27 251.64,324.05C251.64,318.164 250.933,312.592 249.521,307.335C248.108,302.077 245.833,297.467 242.694,293.504C239.555,289.541 235.582,286.5 230.775,284.381C225.969,282.263 219.662,281.203 211.854,281.203L172.244,281.203ZM198.905,300.743L205.556,300.743C212.462,300.743 217.406,302.43 220.388,305.805C223.37,309.179 224.861,315.437 224.861,324.579C224.861,331.485 224.194,336.478 222.859,339.558C221.525,342.638 219.681,344.796 217.327,346.032C214.973,347.268 211.01,347.886 205.438,347.886L198.905,347.886L198.905,300.743ZM386.034,450.713C396.987,450.713 405.891,441.793 405.891,430.823L405.15,133.898L339.288,134.087C319.635,134.087 303.701,118.138 303.701,98.5L303.701,31.267L121.811,31.457C110.858,31.457 101.937,40.377 101.937,51.315L101.937,241.069L348.247,241.069C359.667,241.069 368.926,250.32 368.926,261.748L368.926,387.152C368.926,398.579 359.667,407.829 348.247,407.829L101.937,407.829L101.937,430.824C101.937,441.793 110.857,450.713 121.811,450.713L386.034,450.713ZM265.765,281.203L265.765,367.485L292.544,367.485L292.544,332.23L325.973,332.23L325.973,314.809L292.544,314.809L292.544,299.742L331.682,299.742L331.682,281.203L265.765,281.203Z" style="fill:rgb(220,38,38);"/>
    </g>
</svg>
