<?xml version="1.0" encoding="UTF-8" standalone="no"?>
<!DOCTYPE svg PUBLIC "-//W3C//DTD SVG 1.1//EN" "http://www.w3.org/Graphics/SVG/1.1/DTD/svg11.dtd">
<svg width="100%" height="100%" viewBox="0 0 24 24" version="1.1" xmlns="http://www.w3.org/2000/svg" xmlns:xlink="http://www.w3.org/1999/xlink" xml:space="preserve" xmlns:serif="http://www.serif.com/" style="fill-rule:evenodd;clip-rule:evenodd;stroke-linejoin:round;stroke-miterlimit:2;">
    <g id="Next" transform="matrix(-0.09375,0,0,0.09375,24.008352,0)">
        <path id="Left" d="M110.2,9.5C110.2,9.6 127.9,36.4 149.6,68.9L189,128L149.6,187.1C127.9,219.6 110.2,246.3 110.2,246.5C110.2,246.6 123.2,246.7 139.1,246.7L167.9,246.7L207,187.7C228.5,155.3 246.1,128.4 246.1,128C246.1,127.6 228.5,100.7 207,68.2L167.9,9.2L139,9.2C123.2,9.2 110.2,9.3 110.2,9.5Z" style="fill:rgb(0,89,76);fill-rule:nonzero;"/>
        <path id="Right" d="M10,9.8C10.2,10.1 27.7,36.6 48.9,68.6C70.1,100.6 87.6,127.1 87.7,127.5C87.9,127.9 83.9,134.4 77.5,144C61,168.9 10.4,245.5 10,246.1C9.7,246.6 15.5,246.7 38.3,246.7L67,246.7L106.1,187.7C127.6,155.2 145.2,128.3 145.2,127.9C145.2,127.5 127.6,100.6 106.1,68.2L67,9.2L38.3,9.2C15.5,9.2 9.7,9.4 10,9.8Z" style="fill:rgb(0,89,76);fill-rule:nonzero;"/>
    </g>
</svg>
