<?xml version="1.0" encoding="UTF-8" standalone="no"?>
<!DOCTYPE svg PUBLIC "-//W3C//DTD SVG 1.1//EN" "http://www.w3.org/Graphics/SVG/1.1/DTD/svg11.dtd">
<svg width="100%" height="100%" viewBox="0 0 128 128" version="1.1" xmlns="http://www.w3.org/2000/svg" xmlns:xlink="http://www.w3.org/1999/xlink" xml:space="preserve" xmlns:serif="http://www.serif.com/" style="fill-rule:evenodd;clip-rule:evenodd;stroke-linecap:round;stroke-linejoin:round;stroke-miterlimit:1.5;">
    <g id="Logo">
        <g id="MFC" transform="matrix(1,0,0,1,-25,63)">
            <path id="C" d="M151.737,34.394C149.093,31.166 145.826,29.552 141.937,29.552C140.226,29.552 138.641,29.863 137.183,30.485C135.725,31.108 134.47,31.953 133.42,33.023C132.37,34.092 131.544,35.366 130.941,36.844C130.339,38.321 130.037,39.916 130.037,41.627C130.037,43.377 130.339,44.991 130.941,46.469C131.544,47.946 132.38,49.23 133.45,50.319C134.519,51.408 135.773,52.263 137.212,52.885C138.651,53.508 140.207,53.819 141.879,53.819C145.534,53.819 148.82,52.263 151.737,49.152L151.737,62.685L150.57,63.094C148.82,63.716 147.187,64.173 145.67,64.464C144.154,64.756 142.657,64.902 141.179,64.902C138.145,64.902 135.239,64.328 132.458,63.181C129.677,62.034 127.227,60.42 125.108,58.339C122.989,56.259 121.287,53.789 120.004,50.931C118.72,48.073 118.079,44.952 118.079,41.569C118.079,38.185 118.711,35.084 119.975,32.264C121.239,29.445 122.93,27.014 125.05,24.973C127.169,22.931 129.629,21.337 132.429,20.189C135.229,19.042 138.165,18.469 141.237,18.469C142.987,18.469 144.708,18.653 146.4,19.023C148.091,19.392 149.87,19.966 151.737,20.744L151.737,34.394Z" style="fill:rgb(0,89,76);fill-rule:nonzero;"/>
            <path id="F" d="M113.237,29.377L99.47,29.377L99.47,36.727L112.012,36.727L112.012,46.41L99.47,46.41L99.47,63.677L88.037,63.677L88.037,19.694L113.237,19.694L113.237,29.377Z" style="fill:rgb(0,89,76);fill-rule:nonzero;"/>
            <path id="M" d="M25.679,63.677L33.145,19.694L44.462,19.694L53.27,43.144L62.02,19.694L73.337,19.694L80.804,63.677L69.429,63.677L65.637,38.36L55.254,63.677L50.704,63.677L40.845,38.36L37.054,63.677L25.679,63.677Z" style="fill:rgb(0,89,76);fill-rule:nonzero;"/>
        </g>
        <g id="Flamas">
            <g id="Derecha" transform="matrix(1,0,0,1,0.106996,0)">
                <path d="M106,75C106,75 103.333,68.833 104,66C104.667,63.167 108.667,60.667 110,58C111.229,55.541 112,50 112,50C112,50 115.333,55.833 116,58C116.49,59.593 117.254,61.902 116,63C109.333,68.833 106,75 106,75Z" style="fill:rgb(255,16,0);"/>
            </g>
            <g id="Izquierda" transform="matrix(-1,0,0,1,127.893004,0)">
                <path d="M106,75C106,75 103.333,68.833 104,66C104.667,63.167 108.667,60.667 110,58C111.229,55.541 112,50 112,50C112,50 115.333,55.833 116,58C116.49,59.593 117.254,61.902 116,63C109.333,68.833 106,75 106,75Z" style="fill:rgb(255,16,0);"/>
            </g>
        </g>
        <g id="Cruz">
            <g id="Cruz1" serif:id="Cruz" transform="matrix(0.47619,0,0,1.038961,33.761905,-2.116883)">
                <path d="M53,46.313L-20.5,46.312L-20.5,36.688L53,36.688L53,3L74,3L74,36.688L147.5,36.688L147.5,46.313L74,46.312L74,80L53,80L53,46.313Z" style="fill:rgb(92,70,44);"/>
            </g>
            <g id="Externo" transform="matrix(1.153846,0,0,1.22449,-7.538462,-6.142857)">
                <ellipse cx="62" cy="38.5" rx="26" ry="24.5" style="fill:none;stroke:rgb(255,181,16);stroke-width:1.75px;"/>
            </g>
            <g id="Interno" transform="matrix(1,0,0,1.061224,2,0.142857)">
                <ellipse cx="62" cy="38.5" rx="26" ry="24.5" style="fill:none;stroke:rgb(255,181,16);stroke-width:2.02px;"/>
            </g>
        </g>
    </g>
</svg>
